<svg width="38" height="46" viewBox="0 0 38 46" fill="none" xmlns="http://www.w3.org/2000/svg">
<path fill-rule="evenodd" clip-rule="evenodd" d="M27.4798 11.0999L27.9189 11.1241C29.4069 11.233 33.627 11.6809 36.3714 15.6875C36.1518 15.8206 31.334 18.6168 31.3828 24.4391C31.4438 31.3992 37.5057 33.7111 37.5667 33.7474C37.5179 33.9169 36.6031 37.052 34.3711 40.2839C32.4439 43.0921 30.4558 45.8762 27.309 45.9367C24.2232 45.9972 23.2231 44.1089 19.6981 44.1089C16.1732 44.1089 15.0633 45.8762 12.136 45.9972C9.09898 46.1062 6.79376 42.9711 4.85445 40.175C0.89044 34.4616 -2.1344 24.0396 1.92718 17.0069C3.93968 13.5087 7.54997 11.2935 11.4652 11.2451C14.4412 11.1846 17.2587 13.2424 19.0761 13.2424C20.869 13.2424 24.1012 10.8457 27.8945 11.1241L27.4798 11.0999ZM27.9311 0C28.236 2.61458 27.1261 5.24126 25.4673 7.12957C23.8085 9.01788 21.1008 10.4825 18.454 10.2889C18.0881 7.72269 19.4298 5.04759 20.9666 3.37717C22.6742 1.50096 25.5527 0.0847318 27.9311 0Z" fill="black"/>
</svg>
