<svg width="164" height="27" viewBox="0 0 164 27" fill="none" xmlns="http://www.w3.org/2000/svg">
<path d="M98.7412 13.5919C98.7412 20.9922 92.7422 26.9958 85.3373 26.9958C77.9324 26.9958 71.9333 20.9968 71.9333 13.5919C71.9333 6.187 77.9324 0.187988 85.3373 0.187988C92.7422 0.187988 98.7412 6.187 98.7412 13.5919Z" fill="white"/>
<path opacity="0.65" d="M98.7412 13.5919C98.7412 20.9922 92.7422 26.9958 85.3373 26.9958C77.9324 26.9958 71.9333 20.9968 71.9333 13.5919C71.9333 6.187 77.9324 0.187988 85.3373 0.187988C92.7422 0.187988 98.7412 6.187 98.7412 13.5919Z" fill="white"/>
<path opacity="0.5" d="M98.7412 13.5963C98.7412 21.0012 92.7376 27.0002 85.3373 27.0002C77.9324 27.0002 71.9333 21.0012 71.9333 13.5963C71.9333 6.1914 77.9324 0.192383 85.3373 0.192383C92.7376 0.192383 98.7412 6.1914 98.7412 13.5963Z" fill="white"/>
<path d="M16.0142 13.4272C16.0142 15.9001 14.9746 18.3684 13.2345 19.9116C11.65 21.3358 9.60758 21.9586 6.36536 21.9586H5.01444V4.93698H6.36536C9.60758 4.93698 11.5767 5.51399 13.2345 7.02061C14.9746 8.56845 16.0142 10.9589 16.0142 13.4272ZM21.1889 13.4684C21.1889 5.8666 15.515 0.577393 7.37283 0.577393H0V26.3182H7.33162C11.2287 26.3182 14.045 25.3932 16.5179 23.3462C19.4487 20.9191 21.1889 17.251 21.1889 13.4684Z" fill="white"/>
<path d="M23.5015 26.3182V0.577393H28.5159V26.3182H23.5015V26.3182Z" fill="white"/>
<path d="M39.3232 26.9366C35.504 26.9366 32.7243 25.43 30.4071 22.0366L33.6493 18.9089C34.8079 21.1482 36.7358 22.3434 39.1309 22.3434C41.3702 22.3434 43.0279 20.8002 43.0279 18.7166C43.0279 17.6358 42.5242 16.7108 41.5213 16.0513C41.0176 15.7445 40.0147 15.282 38.0501 14.5859C33.3425 12.887 31.7214 11.0735 31.7214 7.5245C31.7214 3.31604 35.1926 0.15625 39.7491 0.15625C42.5654 0.15625 45.1528 1.1225 47.3142 3.00922L44.6902 6.44377C43.376 4.97836 42.1441 4.36014 40.6375 4.36014C38.476 4.36014 36.8915 5.592 36.8915 7.21768C36.8915 8.60524 37.7799 9.34253 40.7886 10.4599C46.4991 12.5435 48.1981 14.3982 48.1981 18.4876C48.1981 23.4608 44.5345 26.9366 39.3232 26.9366Z" fill="white"/>
<path d="M63.3652 26.8994C55.7222 26.8994 49.7827 21.0332 49.7827 13.468C49.7827 5.9807 55.8825 0 63.4843 0C65.6457 0 67.4592 0.462519 69.6573 1.57989V7.48732C67.5737 5.44033 65.7602 4.59314 63.3652 4.59314C58.6576 4.59314 54.9529 8.49021 54.9529 13.4314C54.9529 18.6427 58.5431 22.3063 63.5988 22.3063C65.8747 22.3063 67.6515 21.4957 69.6573 19.4899V25.3928C67.3768 26.4735 65.5267 26.8994 63.3652 26.8994Z" fill="white"/>
<path d="M111.605 26.3731H108.903L97.9808 0.577393H103.462L110.331 17.8692L117.278 0.577393H122.719L111.605 26.3731Z" fill="white"/>
<path d="M125.072 26.3182V0.577393H139.314V4.93698H130.091V10.6475H138.966V15.0071H130.091V21.954H139.314V26.3136H125.072V26.3182Z" fill="white"/>
<path d="M153.396 8.44938C153.396 11.0367 151.697 12.4243 148.496 12.4243H147.026V4.63016H148.569C151.697 4.63016 153.396 5.93987 153.396 8.44938ZM160.806 26.3182L152.705 15.4742C156.487 14.7003 158.571 12.1175 158.571 8.1792C158.571 3.35251 155.251 0.577393 149.462 0.577393H142.012V26.3182H147.031V15.9779H147.686L154.633 26.3228H160.806V26.3182Z" fill="white"/>
<path d="M162.834 2.647C162.834 3.53998 162.129 4.26811 161.273 4.26811C160.398 4.26811 159.688 3.54456 159.688 2.647C159.688 1.74486 160.394 1.02131 161.273 1.02131C162.129 1.02131 162.834 1.75402 162.834 2.647ZM163.233 2.64242C163.233 1.5571 162.354 0.668701 161.282 0.668701C160.183 0.668701 159.299 1.54795 159.299 2.64242C159.299 3.74606 160.183 4.6253 161.282 4.6253C162.354 4.62072 163.233 3.73232 163.233 2.64242ZM162.28 3.78269L161.529 2.84392C161.845 2.76149 162.028 2.52794 162.028 2.20738C162.028 1.7586 161.717 1.50673 161.167 1.50673H160.444V3.77811H160.975V2.90345L161.612 3.78269H162.28ZM161.483 2.22112C161.483 2.42261 161.341 2.52336 161.076 2.52336H160.98V1.93262H161.085C161.346 1.93262 161.483 2.02878 161.483 2.22112Z" fill="white"/>
</svg>
