<svg width="150" height="30" viewBox="0 0 150 30" fill="none" xmlns="http://www.w3.org/2000/svg">
<path d="M28 8.525C27 3.575 23.625 0.05 17.475 0H17.2C10.2 0.05 5 3.45 2.25 8.525C0.775 11.225 0 14.4 0 17.8C0 24.325 3.75 28.45 8.525 29.6C9.45 29.825 10.4 29.925 11.35 29.925C12.5 29.925 13.525 29.825 14.475 29.6C16.5 29.125 18.05 28.15 19.275 26.725V29.325C19.275 29.35 19.275 29.4 19.3 29.425C19.35 29.525 19.45 29.6 19.575 29.6H23.7C23.75 29.6 23.8 29.575 23.85 29.55C23.925 29.5 23.975 29.45 24 29.35L26.85 15.2C26.875 15.1 26.85 15 26.8 14.925C26.75 14.85 26.65 14.8 26.55 14.8H16.1C15.95 14.8 15.825 14.9 15.8 15.05L15.025 18.875C15.025 18.9 15.025 18.9 15.025 18.925C15.025 18.975 15.025 19 15.05 19.05C15.1 19.15 15.2 19.225 15.325 19.225H20.575C19.45 22.225 16.825 24.875 12.675 24.875C8.475 24.875 5.85 21.95 5.85 16.975C5.85 13.725 6.925 10.7 8.8 8.5C10.625 6.35 13.225 5 16.3 5C19.2 5 20.9 6.275 22.025 8.5C22.325 9.075 22.575 9.675 22.775 10.3C22.85 10.45 23 10.525 23.15 10.475L27.85 9.275C27.875 9.275 27.9 9.25 27.95 9.25C28.05 9.2 28.125 9.075 28.1 8.95L28 8.525ZM39.5 0.300003C39.5 0.125003 39.35 0 39.2 0H34.425C34.275 0 34.15 0.1 34.125 0.25L32.475 8.525L28.325 29.225C28.3 29.275 28.325 29.35 28.35 29.4C28.4 29.525 28.525 29.6 28.65 29.575H33.425C33.475 29.575 33.55 29.55 33.575 29.525C33.65 29.5 33.7 29.425 33.725 29.35L37.9 8.5L39.525 0.324997C39.5 0.324997 39.5 0.325003 39.5 0.300003ZM54.4 8.525C53.475 8.3 52.525 8.175 51.575 8.2C50.325 8.2 49.225 8.3 48.175 8.525C46.15 8.975 44.45 9.9 42.675 11.525C40.075 13.95 38.95 17.05 38.95 21.025C38.95 25.15 41.4 28.55 45.625 29.6C46.55 29.825 47.5 29.95 48.45 29.925C49.7 29.925 50.825 29.825 51.85 29.6C53.875 29.15 55.575 28.225 57.35 26.6C59.95 24.175 61.075 21.075 61.075 17.1C61.075 12.975 58.6 9.575 54.4 8.525ZM53.725 23.25C52.6 24.675 51.05 25.5 48.925 25.5C46.375 25.5 44.7 23.5 44.7 20.225C44.7 17.975 45.225 16.225 46.3 14.875C47.425 13.45 48.975 12.625 51.1 12.625C53.65 12.625 55.325 14.625 55.325 17.9C55.325 20.15 54.8 21.9 53.725 23.25ZM78.975 11.55C78.25 10.175 76.6 9.05 74.7 8.525C73.925 8.3 73.125 8.2 72.3 8.2C71.375 8.2 70.425 8.3 69.525 8.525C66.475 9.325 64.7 11.5 64.7 14.625C64.7 17.425 66.6 19.05 69.15 20.225C71.6 21.35 72.875 22.1 72.875 23.325C72.875 24.825 71.575 25.5 70.1 25.5C68.05 25.5 66.575 24.275 65.95 22.225C65.925 22.15 65.85 22.075 65.775 22.05C65.7 22.025 65.6 22.025 65.525 22.05L61.5 23.65C61.375 23.7 61.3 23.8 61.3 23.925C61.3 23.95 61.3 23.95 61.3 23.975C62 26.725 64.125 28.875 66.875 29.6C67.725 29.825 68.6 29.95 69.45 29.95C70.475 29.95 71.5 29.85 72.5 29.6C75.8 28.825 78 26.6 78 22.625C78 19.7 75.75 18.275 73.5 17.275C72.025 16.6 69.75 15.975 69.75 14.525C69.75 13.325 70.7 12.65 71.875 12.65C73 12.65 74.275 13.15 75.05 14.25C75.1 14.325 75.2 14.375 75.3 14.375C75.35 14.375 75.425 14.35 75.45 14.325L78.8 11.975L78.825 11.95C79 11.85 79.05 11.7 78.975 11.55ZM92.5 8.525C91.725 8.3 90.925 8.2 90.1 8.2C89.1 8.2 88.175 8.325 87.325 8.525C84.275 9.325 82.5 11.5 82.5 14.625C82.5 17.425 84.4 19.05 86.95 20.225C89.425 21.35 90.675 22.1 90.675 23.325C90.675 24.825 89.375 25.5 87.9 25.5C85.85 25.5 84.375 24.275 83.75 22.2C83.675 22.05 83.5 21.975 83.35 22.05L79.35 23.65C79.225 23.7 79.15 23.8 79.15 23.925C79.15 23.95 79.15 23.95 79.15 23.975C79.85 26.7 81.975 28.85 84.725 29.575C85.575 29.8 86.45 29.925 87.325 29.925C88.425 29.925 89.425 29.825 90.375 29.6C93.675 28.825 95.875 26.6 95.875 22.625C95.875 19.7 93.625 18.275 91.375 17.275C89.9 16.6 87.625 15.975 87.625 14.525C87.625 13.325 88.575 12.65 89.75 12.65C90.875 12.65 92.15 13.15 92.9 14.225C93 14.35 93.175 14.4 93.325 14.3L96.725 11.925C96.825 11.85 96.875 11.675 96.8 11.55C96.05 10.175 94.4 9.05 92.5 8.525ZM106.45 8.525H101.675C101.55 8.525 101.425 8.6 101.375 8.75L97.25 29.225C97.25 29.25 97.25 29.275 97.25 29.3C97.25 29.475 97.4 29.6 97.55 29.6H102.325C102.475 29.6 102.575 29.525 102.625 29.375L106.75 8.85V8.825C106.75 8.75 106.725 8.675 106.65 8.6C106.6 8.55 106.525 8.525 106.45 8.525ZM123.25 8.525C122.35 8.3 121.425 8.175 120.5 8.2C119.4 8.2 118.35 8.325 117.375 8.525C111.3 9.85 107.6 15.025 107.6 20.6C107.6 25.425 110.275 28.6 114.175 29.575C115.075 29.8 116 29.925 116.95 29.9C118.125 29.9 119.2 29.8 120.175 29.575C123.2 28.9 125.425 27.15 127.475 24.275C127.525 24.2 127.525 24.125 127.5 24.05C127.475 23.975 127.425 23.9 127.35 23.875L123.575 22C123.525 21.975 123.5 21.975 123.45 21.975C123.35 21.975 123.275 22.025 123.225 22.1C121.675 24.275 119.875 25.5 117.4 25.5C114.55 25.5 113 23.575 113 21.4V20.75H128.4C128.45 20.75 128.525 20.725 128.55 20.7C128.625 20.675 128.675 20.6 128.675 20.525C128.825 20 129.225 18.475 129.225 16.65C129.225 12.75 127.175 9.525 123.25 8.525ZM114.025 16.65C114.925 14.475 117.1 12.65 119.8 12.65C122.525 12.65 123.775 14.025 123.95 16.65H114.025ZM146.65 13.225C146.7 13.25 146.775 13.275 146.825 13.275C146.875 13.275 146.95 13.25 146.975 13.225C147.025 13.2 147.075 13.15 147.1 13.075L148.675 9.025C148.7 9 148.7 8.95 148.7 8.9C148.7 8.775 148.625 8.675 148.5 8.625L148.2 8.525C147.525 8.3 146.95 8.2 145.95 8.2C145.15 8.2 144.375 8.3 143.625 8.525C142.025 9 140.5 10 139.125 11.675L139.7 8.9C139.7 8.875 139.7 8.85 139.7 8.825C139.7 8.75 139.675 8.675 139.6 8.6C139.55 8.55 139.475 8.5 139.375 8.525H134.6C134.45 8.525 134.325 8.625 134.3 8.775L130.25 29.25C130.25 29.275 130.25 29.275 130.25 29.3C130.25 29.35 130.25 29.375 130.275 29.425C130.325 29.525 130.425 29.6 130.55 29.6H135.325C135.375 29.6 135.45 29.575 135.475 29.55C135.55 29.5 135.6 29.45 135.625 29.375L137.1 22.125C138.4 15.475 142.1 12.85 144.8 12.85C145.525 12.825 146.15 12.975 146.65 13.225ZM105.025 0.324997C103.25 0.324997 101.95 1.625 101.95 3.3C101.95 4.975 103.25 6.275 105.025 6.275C106.8 6.275 108.1 4.975 108.1 3.3C108.1 1.625 106.8 0.324997 105.025 0.324997ZM146.925 24.05C145.15 24.05 143.85 25.35 143.85 27.025C143.85 28.125 144.425 29.075 145.325 29.6C145.775 29.85 146.325 30 146.9 30C147.5 30 148.025 29.85 148.475 29.6C149.4 29.075 149.975 28.1 149.95 27.025C150 25.35 148.7 24.05 146.925 24.05Z" fill="white"/>
</svg>
