<svg width="271" height="32" viewBox="0 0 271 32" fill="none" xmlns="http://www.w3.org/2000/svg">
<path d="M23.184 24H21.28V14.088H6.72V24H4.816V3H6.72V12.184H21.28V3H23.184V24ZM75.648 5.128L71.196 14.648H80.072L75.648 5.128ZM86.848 24H84.72L81.052 16.552H70.244L66.576 24H64.448L74.696 3H76.6L86.848 24ZM134.888 24H132.984V4.904H125.032V3H142.84V4.904H134.888V24ZM204.258 20.192C203.997 20.4347 203.586 20.7987 203.026 21.284C202.485 21.7507 201.785 22.2173 200.926 22.684C200.086 23.1507 199.088 23.5613 197.93 23.916C196.792 24.2707 195.494 24.448 194.038 24.448C193.217 24.448 192.368 24.3453 191.49 24.14C190.613 23.9533 189.754 23.664 188.914 23.272C188.093 22.88 187.309 22.3853 186.562 21.788C185.816 21.1907 185.162 20.4907 184.602 19.688C184.061 18.8667 183.622 17.9427 183.286 16.916C182.969 15.8893 182.81 14.7507 182.81 13.5C182.81 11.708 183.146 10.1307 183.818 8.768C184.509 7.38667 185.405 6.23867 186.506 5.324C187.608 4.40933 188.84 3.71867 190.202 3.252C191.565 2.78533 192.937 2.552 194.318 2.552C195.83 2.552 197.137 2.71067 198.238 3.028C199.34 3.32667 200.282 3.7 201.066 4.148C201.85 4.57733 202.485 5.02533 202.97 5.492C203.474 5.94 203.876 6.31333 204.174 6.612L202.886 7.984C202.681 7.77867 202.364 7.48 201.934 7.088C201.505 6.696 200.945 6.304 200.254 5.912C199.564 5.52 198.724 5.184 197.734 4.904C196.764 4.60533 195.625 4.456 194.318 4.456C193.012 4.456 191.78 4.66133 190.622 5.072C189.465 5.48267 188.448 6.08 187.57 6.864C186.693 7.648 185.993 8.6 185.47 9.72C184.966 10.84 184.714 12.1 184.714 13.5C184.714 14.7507 184.948 15.9267 185.414 17.028C185.881 18.1107 186.525 19.0627 187.346 19.884C188.186 20.7053 189.176 21.3587 190.314 21.844C191.453 22.3107 192.694 22.544 194.038 22.544C195.289 22.544 196.409 22.3947 197.398 22.096C198.388 21.7787 199.246 21.4147 199.974 21.004C200.721 20.5933 201.337 20.1827 201.822 19.772C202.326 19.3427 202.7 19.016 202.942 18.792L204.258 20.192ZM265.676 24H263.772V14.088H249.212V24H247.308V3H249.212V12.184H263.772V3H265.676V24Z" fill="white"/>
<path d="M23.184 24V24.5H23.684V24H23.184ZM21.28 24H20.78V24.5H21.28V24ZM21.28 14.088H21.78V13.588H21.28V14.088ZM6.72 14.088V13.588H6.22V14.088H6.72ZM6.72 24V24.5H7.22V24H6.72ZM4.816 24H4.316V24.5H4.816V24ZM4.816 3V2.5H4.316V3H4.816ZM6.72 3H7.22V2.5H6.72V3ZM6.72 12.184H6.22V12.684H6.72V12.184ZM21.28 12.184V12.684H21.78V12.184H21.28ZM21.28 3V2.5H20.78V3H21.28ZM23.184 3H23.684V2.5H23.184V3ZM23.184 23.5H21.28V24.5H23.184V23.5ZM21.78 24V14.088H20.78V24H21.78ZM21.28 13.588H6.72V14.588H21.28V13.588ZM6.22 14.088V24H7.22V14.088H6.22ZM6.72 23.5H4.816V24.5H6.72V23.5ZM5.316 24V3H4.316V24H5.316ZM4.816 3.5H6.72V2.5H4.816V3.5ZM6.22 3V12.184H7.22V3H6.22ZM6.72 12.684H21.28V11.684H6.72V12.684ZM21.78 12.184V3H20.78V12.184H21.78ZM21.28 3.5H23.184V2.5H21.28V3.5ZM22.684 3V24H23.684V3H22.684ZM75.648 5.128L76.1014 4.91729L75.6494 3.94462L75.1951 4.91619L75.648 5.128ZM71.196 14.648L70.7431 14.4362L70.4102 15.148H71.196V14.648ZM80.072 14.648V15.148H80.8557L80.5254 14.4373L80.072 14.648ZM86.848 24V24.5H87.6484L87.2974 23.7807L86.848 24ZM84.72 24L84.2714 24.2209L84.4089 24.5H84.72V24ZM81.052 16.552L81.5006 16.3311L81.3631 16.052H81.052V16.552ZM70.244 16.552V16.052H69.9329L69.7954 16.3311L70.244 16.552ZM66.576 24V24.5H66.8871L67.0246 24.2209L66.576 24ZM64.448 24L63.9987 23.7807L63.6476 24.5H64.448V24ZM74.696 3V2.5H74.3836L74.2467 2.78072L74.696 3ZM76.6 3L77.0494 2.78072L76.9124 2.5H76.6V3ZM75.1951 4.91619L70.7431 14.4362L71.6489 14.8598L76.1009 5.33981L75.1951 4.91619ZM71.196 15.148H80.072V14.148H71.196V15.148ZM80.5254 14.4373L76.1014 4.91729L75.1946 5.33871L79.6186 14.8587L80.5254 14.4373ZM86.848 23.5H84.72V24.5H86.848V23.5ZM85.1686 23.7791L81.5006 16.3311L80.6034 16.7729L84.2714 24.2209L85.1686 23.7791ZM81.052 16.052H70.244V17.052H81.052V16.052ZM69.7954 16.3311L66.1274 23.7791L67.0246 24.2209L70.6926 16.7729L69.7954 16.3311ZM66.576 23.5H64.448V24.5H66.576V23.5ZM64.8973 24.2193L75.1454 3.21928L74.2467 2.78072L63.9987 23.7807L64.8973 24.2193ZM74.696 3.5H76.6V2.5H74.696V3.5ZM76.1507 3.21928L86.3987 24.2193L87.2974 23.7807L77.0494 2.78072L76.1507 3.21928ZM134.888 24V24.5H135.388V24H134.888ZM132.984 24H132.484V24.5H132.984V24ZM132.984 4.904H133.484V4.404H132.984V4.904ZM125.032 4.904H124.532V5.404H125.032V4.904ZM125.032 3V2.5H124.532V3H125.032ZM142.84 3H143.34V2.5H142.84V3ZM142.84 4.904V5.404H143.34V4.904H142.84ZM134.888 4.904V4.404H134.388V4.904H134.888ZM134.888 23.5H132.984V24.5H134.888V23.5ZM133.484 24V4.904H132.484V24H133.484ZM132.984 4.404H125.032V5.404H132.984V4.404ZM125.532 4.904V3H124.532V4.904H125.532ZM125.032 3.5H142.84V2.5H125.032V3.5ZM142.34 3V4.904H143.34V3H142.34ZM142.84 4.404H134.888V5.404H142.84V4.404ZM134.388 4.904V24H135.388V4.904H134.388ZM204.258 20.192L204.599 20.5584L204.967 20.2161L204.623 19.8495L204.258 20.192ZM203.026 21.284L203.353 21.6627L203.354 21.6618L203.026 21.284ZM200.926 22.684L200.688 22.2447L200.683 22.2469L200.926 22.684ZM197.93 23.916L197.784 23.4379L197.782 23.4386L197.93 23.916ZM191.49 24.14L191.604 23.6531L191.594 23.6509L191.49 24.14ZM188.914 23.272L188.699 23.7233L188.703 23.7251L188.914 23.272ZM186.562 21.788L186.875 21.3976L186.875 21.3976L186.562 21.788ZM184.602 19.688L184.185 19.9633L184.192 19.9741L184.602 19.688ZM183.286 16.916L182.809 17.0637L182.811 17.0715L183.286 16.916ZM183.818 8.768L183.371 8.54439L183.37 8.54685L183.818 8.768ZM186.506 5.324L186.187 4.93935L186.187 4.93935L186.506 5.324ZM190.202 3.252L190.04 2.77897L190.04 2.77897L190.202 3.252ZM198.238 3.028L198.1 3.50851L198.107 3.51057L198.238 3.028ZM201.066 4.148L200.818 4.58219L200.826 4.58655L201.066 4.148ZM202.97 5.492L202.624 5.85242L202.631 5.8592L202.638 5.8657L202.97 5.492ZM204.174 6.612L204.539 6.95422L204.87 6.60101L204.528 6.25844L204.174 6.612ZM202.886 7.984L202.533 8.33755L202.898 8.70245L203.251 8.32622L202.886 7.984ZM201.934 7.088L202.271 6.71876L202.271 6.71876L201.934 7.088ZM197.734 4.904L197.587 5.38201L197.598 5.3851L197.734 4.904ZM190.622 5.072L190.455 4.60078L190.455 4.60078L190.622 5.072ZM187.57 6.864L187.237 6.49117L187.237 6.49117L187.57 6.864ZM185.47 9.72L185.017 9.50854L185.014 9.51482L185.47 9.72ZM185.414 17.028L184.954 17.2231L184.955 17.2259L185.414 17.028ZM187.346 19.884L186.993 20.2376L186.997 20.2415L187.346 19.884ZM190.314 21.844L190.118 22.304L190.125 22.3067L190.314 21.844ZM197.398 22.096L197.543 22.5747L197.551 22.5721L197.398 22.096ZM199.974 21.004L199.733 20.5659L199.729 20.5685L199.974 21.004ZM201.822 19.772L202.145 20.1537L202.147 20.1526L201.822 19.772ZM202.942 18.792L203.307 18.4495L202.967 18.0885L202.603 18.4246L202.942 18.792ZM203.918 19.8256C203.663 20.0621 203.258 20.4215 202.699 20.9062L203.354 21.6618C203.915 21.1758 204.331 20.8072 204.599 20.5584L203.918 19.8256ZM202.7 20.9053C202.193 21.342 201.525 21.7893 200.688 22.2447L201.165 23.1233C202.044 22.6454 202.777 22.1594 203.353 21.6627L202.7 20.9053ZM200.683 22.2469C199.881 22.6929 198.916 23.091 197.784 23.4379L198.077 24.3941C199.259 24.0316 200.292 23.6084 201.169 23.1211L200.683 22.2469ZM197.782 23.4386C196.7 23.7754 195.455 23.948 194.038 23.948V24.948C195.534 24.948 196.883 24.7659 198.079 24.3934L197.782 23.4386ZM194.038 23.948C193.259 23.948 192.448 23.8506 191.604 23.6532L191.376 24.6268C192.287 24.8401 193.175 24.948 194.038 24.948V23.948ZM191.594 23.6509C190.755 23.4724 189.933 23.1954 189.126 22.8189L188.703 23.7251C189.576 24.1326 190.471 24.4342 191.386 24.6291L191.594 23.6509ZM189.13 22.8208C188.345 22.4461 187.593 21.9722 186.875 21.3976L186.25 22.1784C187.025 22.7985 187.841 23.3139 188.699 23.7232L189.13 22.8208ZM186.875 21.3976C186.166 20.8309 185.546 20.1662 185.012 19.4019L184.192 19.9741C184.779 20.8151 185.465 21.5505 186.25 22.1784L186.875 21.3976ZM185.02 19.4128C184.505 18.6321 184.085 17.749 183.762 16.7605L182.811 17.0715C183.16 18.1364 183.617 19.1012 184.185 19.9632L185.02 19.4128ZM183.764 16.7683C183.464 15.7966 183.31 14.7086 183.31 13.5H182.31C182.31 14.7927 182.474 15.9821 182.809 17.0637L183.764 16.7683ZM183.31 13.5C183.31 11.771 183.634 10.2717 184.267 8.98915L183.37 8.54685C182.658 9.9896 182.31 11.645 182.31 13.5H183.31ZM184.266 8.99161C184.928 7.66728 185.782 6.57566 186.826 5.70864L186.187 4.93935C185.028 5.90167 184.09 7.10605 183.371 8.54439L184.266 8.99161ZM186.826 5.70864C187.88 4.83299 189.059 4.17216 190.364 3.72503L190.04 2.77897C188.621 3.26518 187.335 3.98567 186.187 4.93935L186.826 5.70864ZM190.364 3.72503C191.677 3.27545 192.994 3.052 194.318 3.052V2.052C192.88 2.052 191.453 2.29522 190.04 2.77897L190.364 3.72503ZM194.318 3.052C195.797 3.052 197.055 3.20746 198.1 3.50845L198.377 2.54755C197.219 2.21387 195.863 2.052 194.318 2.052V3.052ZM198.107 3.51057C199.178 3.8009 200.079 4.15986 200.818 4.58212L201.314 3.71388C200.485 3.24014 199.501 2.85243 198.369 2.54543L198.107 3.51057ZM200.826 4.58655C201.583 5.00113 202.179 5.4245 202.624 5.85242L203.317 5.13158C202.791 4.62616 202.117 4.15353 201.306 3.70945L200.826 4.58655ZM202.638 5.8657C203.139 6.31053 203.532 6.67663 203.821 6.96555L204.528 6.25844C204.219 5.95004 203.81 5.56947 203.302 5.11829L202.638 5.8657ZM203.81 6.26978L202.522 7.64178L203.251 8.32622L204.539 6.95422L203.81 6.26978ZM203.24 7.63044C203.026 7.41678 202.702 7.11188 202.271 6.71876L201.597 7.45724C202.025 7.84812 202.336 8.14055 202.533 8.33755L203.24 7.63044ZM202.271 6.71876C201.807 6.29433 201.213 5.88138 200.501 5.47716L200.008 6.34684C200.677 6.72662 201.203 7.09766 201.597 7.45724L202.271 6.71876ZM200.501 5.47716C199.767 5.06054 198.888 4.7108 197.87 4.4229L197.598 5.3851C198.56 5.65719 199.36 5.97946 200.008 6.34684L200.501 5.47716ZM197.881 4.42611C196.852 4.10928 195.661 3.956 194.318 3.956V4.956C195.589 4.956 196.676 5.10138 197.587 5.38189L197.881 4.42611ZM194.318 3.956C192.958 3.956 191.669 4.16988 190.455 4.60078L190.79 5.54321C191.89 5.15279 193.065 4.956 194.318 4.956V3.956ZM190.455 4.60078C189.239 5.0322 188.165 5.66203 187.237 6.49117L187.903 7.23683C188.73 6.49797 189.691 5.93314 190.79 5.54321L190.455 4.60078ZM187.237 6.49117C186.307 7.32255 185.567 8.33035 185.017 9.50856L185.923 9.93144C186.419 8.86965 187.079 7.97345 187.903 7.23683L187.237 6.49117ZM185.014 9.51482C184.478 10.7078 184.214 12.0391 184.214 13.5H185.214C185.214 12.1609 185.455 10.9722 185.926 9.92518L185.014 9.51482ZM184.214 13.5C184.214 14.8146 184.46 16.0572 184.954 17.2231L185.875 16.8329C185.435 15.7961 185.214 14.6868 185.214 13.5H184.214ZM184.955 17.2259C185.446 18.3658 186.126 19.3708 186.993 20.2376L187.7 19.5304C186.924 18.7545 186.315 17.8556 185.873 16.8301L184.955 17.2259ZM186.997 20.2415C187.883 21.1085 188.926 21.7956 190.118 22.304L190.51 21.384C189.426 20.9217 188.489 20.3022 187.696 19.5265L186.997 20.2415ZM190.125 22.3067C191.329 22.8002 192.635 23.044 194.038 23.044V22.044C192.753 22.044 191.577 21.8212 190.504 21.3813L190.125 22.3067ZM194.038 23.044C195.328 23.044 196.498 22.8901 197.543 22.5747L197.254 21.6173C196.32 21.8993 195.25 22.044 194.038 22.044V23.044ZM197.551 22.5721C198.565 22.2468 199.456 21.8703 200.22 21.4395L199.729 20.5685C199.036 20.9591 198.21 21.3105 197.246 21.6199L197.551 22.5721ZM200.215 21.4421C200.982 21.0204 201.628 20.5917 202.145 20.1537L201.499 19.3903C201.046 19.7736 200.46 20.1662 199.733 20.5659L200.215 21.4421ZM202.147 20.1526C202.652 19.7223 203.031 19.3904 203.281 19.1594L202.603 18.4246C202.368 18.6416 202.001 18.963 201.498 19.3914L202.147 20.1526ZM202.578 19.1345L203.894 20.5345L204.623 19.8495L203.307 18.4495L202.578 19.1345ZM265.676 24V24.5H266.176V24H265.676ZM263.772 24H263.272V24.5H263.772V24ZM263.772 14.088H264.272V13.588H263.772V14.088ZM249.212 14.088V13.588H248.712V14.088H249.212ZM249.212 24V24.5H249.712V24H249.212ZM247.308 24H246.808V24.5H247.308V24ZM247.308 3V2.5H246.808V3H247.308ZM249.212 3H249.712V2.5H249.212V3ZM249.212 12.184H248.712V12.684H249.212V12.184ZM263.772 12.184V12.684H264.272V12.184H263.772ZM263.772 3V2.5H263.272V3H263.772ZM265.676 3H266.176V2.5H265.676V3ZM265.676 23.5H263.772V24.5H265.676V23.5ZM264.272 24V14.088H263.272V24H264.272ZM263.772 13.588H249.212V14.588H263.772V13.588ZM248.712 14.088V24H249.712V14.088H248.712ZM249.212 23.5H247.308V24.5H249.212V23.5ZM247.808 24V3H246.808V24H247.808ZM247.308 3.5H249.212V2.5H247.308V3.5ZM248.712 3V12.184H249.712V3H248.712ZM249.212 12.684H263.772V11.684H249.212V12.684ZM264.272 12.184V3H263.272V12.184H264.272ZM263.772 3.5H265.676V2.5H263.772V3.5ZM265.176 3V24H266.176V3H265.176Z" fill="white"/>
</svg>
