<svg width="226" height="194" viewBox="0 0 226 194" fill="none" xmlns="http://www.w3.org/2000/svg">
<path d="M70.7501 91.52C66.5501 91.52 63.8101 94.89 63.8101 98.25C64.5201 98.25 76.7301 98.05 77.2301 98.05C77.2301 95.37 75.1201 91.52 70.7501 91.52Z" fill="white"/>
<path d="M195.12 91.52C190.92 91.52 188.18 94.89 188.18 98.25C188.89 98.25 201.1 98.05 201.6 98.05C201.61 95.37 199.5 91.52 195.12 91.52Z" fill="white"/>
<path d="M215.07 83.45C206.32 73.39 191.91 71.71 180.01 79.36C179.12 79.93 178.29 80.58 177.5 81.27V70.72C177.88 70.47 178.25 70.19 178.57 69.86L197.8 50.04C200.08 47.69 200.07 43.94 197.76 41.6L163.33 6.79C162.21 5.65 160.67 5 159.07 5C159.06 5 159.06 5 159.05 5C157.45 5 155.92 5.63 154.79 6.77L113.27 48.29L72.07 6.79C70.94 5.66 69.41 5.02 67.81 5.01C67.8 5.01 67.8 5.01 67.79 5.01C66.2 5.01 64.67 5.64 63.54 6.76L28.61 41.49C26.25 43.84 26.24 47.65 28.58 50.01L54.64 76.24C53.76 75.76 52.77 75.48 51.74 75.48H33.59C33.36 75.48 33.14 75.49 32.91 75.52V70.68C32.91 67.35 30.21 64.65 26.88 64.65H11.03C7.7 64.66 5 67.36 5 70.69V122.13C5 125.46 7.7 128.16 11.03 128.16H26.89C28.56 128.16 30.08 127.48 31.17 126.38C32.29 127.51 33.83 128.16 35.45 128.16H43.54L28.59 143.58C26.31 145.93 26.32 149.68 28.63 152.02L63.05 186.83C64.18 187.97 65.72 188.62 67.32 188.62C67.33 188.62 67.33 188.62 67.34 188.62C68.94 188.62 70.47 187.99 71.6 186.85L113.12 145.33L154.31 186.83C155.44 187.96 156.97 188.6 158.57 188.61C158.58 188.61 158.58 188.61 158.59 188.61C160.18 188.61 161.71 187.98 162.84 186.86L197.76 152.14C200.12 149.79 200.13 145.98 197.79 143.62L178.48 124.17C178.14 123.83 177.76 123.55 177.37 123.31C177.44 122.93 177.49 122.55 177.49 122.15V121.7C182.38 126.26 189.02 128.78 196.81 128.78C206.21 128.78 214.72 123.71 215.66 123.13C218.36 121.47 219.31 118 217.84 115.19L215.9 111.51C218.47 110.98 220.48 108.75 220.73 106.05C221.23 100.6 221.15 90.44 215.07 83.45ZM33.58 45.77L67.79 11.76L113.25 57.55L159.05 11.75L192.76 45.85L173.88 65.32L172.44 63.93L189.96 45.87L159.04 14.6L113.24 60.4L67.77 14.59L36.41 45.78L62.1 71.64L60.68 73.05L33.58 45.77ZM171.46 70.69V122.13H155.6V70.69H171.46ZM121.88 93.61L123.22 81.23H127.09V70.69H142.3V81.23H148.51L148.43 93.61H142.3V106.57C142.3 107.84 143.33 108.87 144.6 108.87C146.95 108.87 148.83 108.21 148.83 108.21L151.12 120.86C151.12 120.86 147.98 122.74 140.97 122.74C133.31 122.74 127.1 116.53 127.1 108.87V93.61H121.88ZM92.29 93.61V81.23H97.5V70.69H112.71V81.23H119.71L118.22 93.61H112.71V106.57C112.71 107.84 113.74 108.87 115.01 108.87C117.35 108.87 119.24 108.21 119.24 108.21L121.53 120.86C121.53 120.86 118.39 122.74 111.38 122.74C103.72 122.74 97.51 116.53 97.51 108.87V93.61H92.29ZM58.89 84.43C67.41 78.95 78.88 79.07 86.14 87.41C91.55 93.63 90.49 104.02 90.35 105.6C87.58 105.61 63.74 105.69 63.34 105.69C63.34 106.9 66.33 111.84 71.98 111.84C77.73 111.84 83.3 108.8 83.3 108.8L88.13 117.99C88.13 117.99 80.4 122.74 72.44 122.74C58.87 122.74 53.19 114.04 51.3 107.13C49.05 98.88 51.51 89.17 58.89 84.43ZM35.45 122.13L26.89 109.02V122.13H11.02V70.69H26.88V91.8L33.58 81.52H51.73L39.41 100.41L53.59 122.13H35.45ZM192.8 147.85L158.59 181.86L113.13 136.07L67.33 181.87L33.62 147.77L52.5 128.3L53.94 129.69L36.42 147.75L67.34 179.03L113.14 133.23L158.6 179.02L189.97 147.83L172.42 130.16L173.84 128.75L192.8 147.85ZM214.72 105.59C211.95 105.6 188.11 105.68 187.71 105.68C187.71 106.89 190.7 111.83 196.35 111.83C202.1 111.83 207.67 108.79 207.67 108.79L212.5 117.98C212.5 117.98 204.77 122.73 196.81 122.73C183.24 122.73 177.56 114.03 175.68 107.12C173.43 98.87 175.89 89.17 183.27 84.42C191.79 78.94 203.26 79.06 210.52 87.4C215.93 93.62 214.86 104.01 214.72 105.59Z" fill="white"/>
<path d="M62.1001 71.64L36.4101 45.78L67.7701 14.59L113.23 60.38L159.03 14.58L189.95 45.86L172.44 63.92L173.87 65.31L192.75 45.85L159.04 11.75L113.24 57.55L67.7801 11.76L33.5801 45.77L60.6801 73.05L62.1001 71.64Z" fill="black"/>
<path d="M172.42 130.17L189.97 147.84L158.61 179.03L113.14 133.23L67.3399 179.03L36.4299 147.76L53.9399 129.69L52.5099 128.3L33.6299 147.77L67.3399 181.87L113.14 136.07L158.6 181.86L192.8 147.85L173.84 128.76L172.42 130.17Z" fill="black"/>
<path d="M183.26 84.4299C175.88 89.1699 173.42 98.8799 175.67 107.13C177.56 114.05 183.23 122.74 196.8 122.74C204.76 122.74 212.49 117.99 212.49 117.99L207.66 108.8C207.66 108.8 202.09 111.84 196.34 111.84C190.7 111.84 187.7 106.91 187.7 105.69C188.1 105.69 211.94 105.61 214.71 105.6C214.85 104.02 215.92 93.6299 210.5 87.4099C203.26 79.0599 191.79 78.9499 183.26 84.4299ZM188.18 98.2499C188.18 94.8799 190.92 91.5199 195.12 91.5199C199.49 91.5199 201.6 95.3799 201.6 98.0499C201.11 98.0499 188.89 98.2499 188.18 98.2499Z" fill="black"/>
<path d="M51.3001 107.12C53.1901 114.04 58.8701 122.73 72.4401 122.73C80.4001 122.73 88.1301 117.98 88.1301 117.98L83.3001 108.79C83.3001 108.79 77.7301 111.83 71.9801 111.83C66.3401 111.83 63.3401 106.9 63.3401 105.68C63.7401 105.68 87.5801 105.6 90.3501 105.59C90.4901 104.01 91.5601 93.6198 86.1401 87.3998C78.8801 79.0598 67.4101 78.9398 58.8901 84.4198C51.5101 89.1698 49.0501 98.8798 51.3001 107.12ZM70.7501 91.5198C75.1201 91.5198 77.2301 95.3798 77.2301 98.0498C76.7301 98.0498 64.5201 98.2498 63.8101 98.2498C63.8101 94.8798 66.5501 91.5198 70.7501 91.5198Z" fill="black"/>
<path d="M97.49 108.87C97.49 116.53 103.7 122.74 111.36 122.74C118.37 122.74 121.51 120.86 121.51 120.86L119.22 108.21C119.22 108.21 117.34 108.87 114.99 108.87C113.72 108.87 112.69 107.84 112.69 106.57V93.6099H118.2L119.69 81.2299H112.69V70.6899H97.49V81.2299H92.28V93.6099H97.49V108.87Z" fill="black"/>
<path d="M127.08 108.87C127.08 116.53 133.29 122.74 140.95 122.74C147.96 122.74 151.1 120.86 151.1 120.86L148.81 108.21C148.81 108.21 146.93 108.87 144.58 108.87C143.31 108.87 142.28 107.84 142.28 106.57V93.6099H148.41L148.49 81.2299H142.28V70.6899H127.07V81.2299H123.2L121.86 93.6099H127.07V108.87H127.08Z" fill="black"/>
<path d="M171.46 70.6899H155.6V122.13H171.46V70.6899Z" fill="black"/>
<path d="M39.41 100.41L51.74 81.5199H33.59L26.89 91.7999V70.6899H11.02V122.13H26.89V109.02L35.45 122.13H53.6L39.41 100.41Z" fill="black"/>
</svg>
