<svg width="170" height="31" viewBox="0 0 170 31" fill="none" xmlns="http://www.w3.org/2000/svg">
<path fill-rule="evenodd" clip-rule="evenodd" d="M24.6237 15.6296C24.6237 7.07109 31.373 0 41.2754 0C51.0852 0 57.9181 7.07109 57.9181 15.6296C57.9181 24.7303 50.4654 31 41.2754 31C32.0793 31 24.6237 24.6395 24.6237 15.6296ZM28.6607 15.6379C28.6607 22.3548 34.3055 27.9306 41.1566 27.9306C48.0046 27.9306 53.9151 22.3546 53.9151 15.6379C53.9151 8.93026 48.6223 3.08741 41.4222 3.08741C34.0391 3.08741 28.6607 8.93026 28.6607 15.6379ZM100.425 3.55298L103.38 0.190155H109.703L100.425 3.55298ZM113.866 28.9143H92.035V4.18719H113.866V6.87797H95.7775V14.8396H109.364V17.5721H95.7775V26.2137H113.866V28.9143ZM150.515 26.2137V4.18719H147.103V28.9143H169.172V26.2137H150.515ZM115.597 28.9143L128.012 4.18719H132.79L145.215 28.9143H141.062L137.859 22.5142H122.97L119.794 28.9143H115.597ZM130.391 7.60399L124.541 19.4148H136.309L130.391 7.60399ZM80.1894 18.5746C85.7829 17.063 86.3263 12.848 86.298 11.3412C85.9641 6.9238 83.0254 4.18719 77.7449 4.18719H62.3567V28.9143H65.8646V18.5416H75.8828L83.2529 28.9143H87.6744C87.6742 28.9143 82.3705 21.9334 80.1894 18.5746ZM77.2659 15.62H65.8646V7.11398H77.6633C80.3798 7.11398 81.9078 8.39833 82.4582 10.0298C82.8224 11.1482 82.5889 12.6163 81.9865 13.6158C81.0004 15.2683 79.1273 15.62 77.2659 15.62ZM15.7885 12.9348H18.3198L22.9143 4.18719H19.217L15.7885 12.9348ZM3.41409 4.18719V26.2137H22.0682V28.9143H0V4.18719H3.41409Z" fill="black"/>
</svg>
