<svg width="171" height="50" viewBox="0 0 171 50" fill="none" xmlns="http://www.w3.org/2000/svg">
<path d="M0 50V0H34.9131V50H0ZM29.861 44.9631V5.03652H5.0274V44.9631H29.861Z" fill="white"/>
<path d="M58.1112 22.4268H55.9512C53.1203 18.4268 50.3011 14.4512 47.4945 9.95134V22.4268H45.0542V5.02441H47.2139C50.0452 8.99999 52.864 12.9512 55.6462 17.4269V5.02441H58.0869V22.4268H58.1112Z" fill="white"/>
<path d="M63.7735 15.5489C64.4691 13.2684 65.1646 11.1464 65.787 8.46365C66.4825 11.1465 67.105 13.2684 67.7517 15.5489H63.7735ZM64.9205 5.03666L58.892 22.4268H61.4793L62.9923 17.683H68.2397L69.6063 22.4268H72.9378L67.4342 5.02441H64.9939L64.9205 5.03666Z" fill="white"/>
<path d="M75.7691 22.4268V7.36592H71.1927V5.03662H83.2985V7.36592H78.7224V22.4268H75.7327H75.7691Z" fill="white"/>
<path d="M84.3113 22.4268V5.02441H87.2766V22.4268H84.3113Z" fill="white"/>
<path d="M96.4656 20.2073C93.3539 20.2073 92.2555 16.7805 92.2555 13.4512C92.2555 10.1218 93.4758 7.18287 96.4656 7.18287C99.4556 7.18287 100.664 10.244 100.664 13.4512C100.664 16.6586 99.5775 20.2073 96.4656 20.2073ZM96.4656 22.6463C101.017 22.6463 103.848 18.5978 103.848 13.4025C103.848 8.52456 100.712 4.64648 96.4656 4.64648C92.2191 4.64648 89.0827 8.52456 89.0827 13.4025C89.0827 18.6706 91.9141 22.7318 96.4656 22.7318V22.6463Z" fill="white"/>
<path d="M118.688 22.4268H116.527C113.697 18.4268 110.877 14.4512 108.071 9.95134V22.4268H105.63V5.02441H107.79C110.621 8.99999 113.44 12.9512 116.222 17.4269V5.02441H118.663V22.4268H118.688Z" fill="white"/>
<path d="M124.386 15.5488C125.082 13.2684 125.778 11.1463 126.4 8.46361C127.095 11.1465 127.718 13.2684 128.365 15.5488H124.338H124.386ZM125.533 5.03662L119.517 22.4391H122.104L123.618 17.695H128.865L130.232 22.4391H133.563L128.011 5.03662H125.57H125.533Z" fill="white"/>
<path d="M134.429 5.02441H137.395V20.0853H143.289V22.4268H134.429V5.02441Z" fill="white"/>
<path d="M56.2684 36.9869V44.1697C54.6981 44.8323 53.0181 45.1961 51.3142 45.2429C46.1887 45.2429 42.9546 41.2673 42.9546 36.1455C42.9546 31.4013 46.1887 27.2432 51.4116 27.2432C52.9227 27.2515 54.3952 27.7194 55.6339 28.5845L54.6699 30.6455C53.7056 30.0693 52.6081 29.7544 51.4851 29.7311C48.2999 29.7311 46.1398 32.2433 46.1398 36.1943C46.1398 40.1454 48.5803 42.7553 51.1921 42.7553C51.9122 42.7865 52.6288 42.6396 53.2786 42.3284V36.9869H56.2684Z" fill="white"/>
<path d="M66.9464 29.8779H61.9675V34.6465H66.8487V36.988H61.9675V42.6099H67.8372V44.9513H58.9779V27.5247H66.9345V29.866L66.9464 29.8779Z" fill="white"/>
<path d="M76.1474 42.7561C73.0357 42.7561 71.9496 39.3291 71.9496 36.0002C71.9496 32.6708 73.1699 29.7317 76.1474 29.7317C79.1251 29.7317 80.3577 32.7927 80.3577 36.0002C80.3575 39.2073 79.2593 42.7561 76.1474 42.7561ZM76.1474 45.1952C80.6991 45.1952 83.5303 41.1463 83.5303 35.9513C83.5303 31.0734 80.3941 27.1953 76.1474 27.1953C71.901 27.1953 68.7648 31.0734 68.7648 35.9513C68.7648 41.1951 71.5957 45.2438 76.1474 45.2438V45.1952Z" fill="white"/>
<path d="M97.8689 36.9879V44.1706C96.2987 44.8332 94.6183 45.197 92.9144 45.2438C87.7891 45.2438 84.5551 41.2683 84.5551 36.1465C84.5551 31.4023 87.7891 27.2441 93.0121 27.2441C94.5231 27.2525 95.9956 27.7204 97.2343 28.5855L96.2704 30.6465C95.306 30.0703 94.2083 29.7553 93.0852 29.732C89.9003 29.732 87.7402 32.2442 87.7402 36.1953C87.7402 40.1464 90.1809 42.7563 92.7923 42.7563C93.5124 42.7874 94.2291 42.6406 94.8792 42.3294V36.9879H97.8689Z" fill="white"/>
<path d="M103.592 29.8779H104.91C106.298 29.7406 107.535 30.7539 107.673 32.1415C107.691 32.3217 107.689 32.5033 107.668 32.683C107.888 34.3594 106.706 35.8961 105.029 36.1154C104.965 36.1236 104.901 36.13 104.837 36.1343L103.617 36.2075V29.8658L103.592 29.8779ZM111.158 44.9393L107.705 37.7319C109.582 36.6905 110.738 34.7067 110.719 32.5611C110.719 29.183 108.656 27.5369 105.325 27.5369H100.676V44.9393H103.665V38.378H105.008L107.814 44.9393H111.219H111.158Z" fill="white"/>
<path d="M116.076 38.0612C116.772 35.7807 117.467 33.6587 118.09 30.9756C118.785 33.6587 119.407 35.7683 120.054 38.0612H116.027H116.076ZM117.223 27.5247L111.207 44.9269H113.806L115.32 40.1827H120.567L121.933 44.9269H125.265L119.713 27.5247H117.272H117.223Z" fill="white"/>
<path d="M130.891 27.5247H126.241V44.9269H129.231V38.378H130.574C133.714 38.3991 136.277 35.8719 136.298 32.7334C136.299 32.6759 136.298 32.6183 136.297 32.561C136.248 29.1828 134.185 27.5247 130.891 27.5247ZM130.463 36.1219L129.243 36.1951V29.866H130.586C131.975 29.7423 133.202 30.7677 133.326 32.1562C133.341 32.3277 133.339 32.5001 133.319 32.6708C133.544 34.3533 132.361 35.899 130.678 36.1234C130.595 36.1345 130.511 36.1422 130.427 36.1466L130.463 36.1219Z" fill="white"/>
<path d="M150.086 44.9393H147.096V36.5613H140.897V44.9393H137.932V27.5247H140.897V34.2073H147.096V27.5732H150.086V44.9269V44.9393Z" fill="white"/>
<path d="M152.942 44.9393V27.5247H155.907V44.9269H152.942V44.9393Z" fill="white"/>
<path d="M169.331 30.6954C168.411 30.1139 167.355 29.782 166.268 29.7321C163.229 29.7321 161.02 32.244 161.02 36.1951C161.02 40.1461 163.461 42.7562 166.341 42.7562C167.399 42.7535 168.435 42.4537 169.331 41.8904L170.148 44.0491C168.976 44.8093 167.616 45.2311 166.219 45.2684C161.094 45.2684 157.86 41.2928 157.86 36.1707C157.86 31.4271 161.069 27.2686 166.268 27.2686C167.705 27.3131 169.097 27.7797 170.27 28.6101L169.331 30.6954Z" fill="white"/>
</svg>
