<svg width="138" height="37" viewBox="0 0 138 37" fill="none" xmlns="http://www.w3.org/2000/svg">
<path fill-rule="evenodd" clip-rule="evenodd" d="M18.5 0H12.8201L12.8037 10.4482C12.7982 13.6992 12.7927 16.9507 12.7872 20.897C11.6478 17.3013 10.5079 14.2729 9.36719 11.2427C8.06421 7.78125 6.76001 4.31641 5.4541 0H0V37C1.84119 36.7324 3.81262 36.4756 5.65564 36.23C5.66089 28.4966 5.66626 23.7427 5.67151 16.0088C8.20789 23.6211 9.76733 28.1108 12.2963 35.3447C12.6659 35.3018 13.0422 35.2568 13.423 35.2109L14.4075 35.0908C15.04 35.0137 15.6783 34.936 16.3113 34.8613C17.0338 34.7759 17.7493 34.6948 18.4413 34.623L18.5 0ZM40.3274 0H24.4502L24.3862 34.4771C29.697 33.9829 35.0142 33.5791 40.335 33.2656L40.3438 27.4897C36.8838 27.7075 33.5739 27.9341 30.1262 28.1714L30.1439 19.436C31.4006 19.4141 32.6925 19.4126 33.9912 19.4111C34.5525 19.4106 35.115 19.4102 35.6765 19.4082C36.1202 19.4062 36.5635 19.4033 37.0049 19.3984C37.304 19.395 37.6022 19.3911 37.8993 19.3857L37.9083 13.584C36.7867 13.604 35.6375 13.6167 34.4883 13.6284L34.3331 13.6299C32.9208 13.644 31.5104 13.6582 30.1539 13.6841C30.1599 10.5942 30.1659 8.89941 30.172 5.80957C30.9146 5.80029 31.6501 5.79492 32.3817 5.79199C33.2057 5.78857 34.0245 5.7876 34.8427 5.7876H35.6564H36.4659C37.7543 5.7876 39.048 5.78613 40.3633 5.77441C40.3649 4.93018 40.3551 3.90088 40.3453 2.87207C40.3357 1.85352 40.326 0.835938 40.3274 0ZM44.576 0.000488281L62.2269 0L62.2247 5.73096L59.5348 5.7373L56.24 5.74902L56.2148 32.6152C54.3468 32.6641 52.3485 32.7241 50.4808 32.7954L50.5165 5.77637L49.9268 5.77783C49.1603 5.77783 48.3942 5.77002 47.6281 5.76221L47.4918 5.76074C46.7701 5.75391 46.0488 5.74707 45.3274 5.74707L44.886 5.74805L44.5679 5.74951L44.576 0.000488281ZM82.4039 0H65.5961L65.5911 31.9434C66.2406 31.9409 66.8978 31.9399 67.5576 31.9399C68.1007 31.9399 68.6455 31.9409 69.1893 31.9424C69.9912 31.9448 70.7908 31.9487 71.5796 31.9546L71.5752 18.793L72.574 18.7949C73.3555 18.7949 74.1495 18.792 74.9469 18.7886C75.7443 18.7856 76.545 18.7822 77.3387 18.7822C78.1567 18.7822 78.9672 18.7856 79.7595 18.7959L79.7549 13.1465L78.967 13.1406L78.444 13.1382L77.47 13.1367C76.6427 13.1367 75.8071 13.1396 74.9749 13.1426C74.1436 13.145 73.3152 13.1479 72.5016 13.1479L71.5736 13.147L71.5709 5.69727L73.5369 5.69824L75.522 5.69775L77.5212 5.69727C79.1449 5.69727 80.7699 5.69873 82.4093 5.70557L82.4039 0ZM85.7876 16.4346C85.7972 10.9565 85.8069 5.47852 85.7997 0H91.6901C91.6945 2.76807 91.693 5.45996 91.6892 8.12061C91.6865 9.96973 91.6827 11.8042 91.679 13.6387C91.6697 18.1118 91.6605 22.585 91.668 27.2769C94.124 27.3784 96.6533 27.5327 99.1462 27.6855C100.017 27.7388 100.883 27.7915 101.74 27.8418L101.75 33.6362C96.5183 33.2754 91.0138 33.064 85.7754 32.8691C85.7683 27.3906 85.778 21.9126 85.7876 16.4346ZM105.955 0L106.022 33.1704C106.643 33.2173 107.271 33.2656 107.902 33.3149L108.507 33.3618C109.182 33.415 109.858 33.4697 110.529 33.5259C110.965 33.562 111.399 33.5991 111.829 33.6362L111.834 27.0928C111.841 18.0649 111.848 9.03027 111.83 0H105.955ZM121.249 11.3442C119.72 7.49414 118.23 3.74365 116.651 0L123.168 0.000488281C124.613 3.61914 125.582 6.02637 127.025 9.74658C128.573 6.17139 129.685 3.75781 131.301 0.00146484L137.818 0.00195312C136.435 3.2124 135.065 6.27588 133.708 9.30859C132.497 12.0161 131.296 14.6992 130.107 17.4414C132.638 23.6309 135.392 30.4507 137.909 37L137.22 36.9048C135.26 36.6328 132.913 36.3071 131.057 36.0732C130.232 33.8403 129.446 31.9189 128.656 29.9849C128.021 28.4312 127.383 26.8691 126.718 25.1313C125.908 27.1128 125.139 28.8257 124.367 30.5459C123.712 32.0044 123.054 33.4683 122.369 35.1045C121.517 35.0122 120.653 34.9087 119.787 34.8047C118.535 34.6548 117.277 34.5039 116.045 34.3853C118.562 28.8486 121.126 23.1147 123.645 17.3428C122.824 15.3091 122.032 13.3135 121.249 11.3442Z" fill="white"/>
</svg>
