<svg width="130" height="45" viewBox="0 0 130 45" fill="none" xmlns="http://www.w3.org/2000/svg">
<path d="M106.899 30.7005C102.978 30.7005 99.7493 33.8203 99.7493 37.6552C99.7493 41.5767 102.869 44.8049 106.791 44.8049C110.712 44.8049 113.94 41.685 113.94 37.7635C114.049 33.9287 110.821 30.7005 106.899 30.7005ZM91.0613 15.3394C87.2482 15.2311 83.9116 18.1776 83.825 22.0991V22.2941C83.7166 26.2156 86.7498 29.5305 90.6714 29.6388C94.5929 29.7472 97.9077 26.714 98.0161 22.7924C98.1244 18.8709 95.0912 15.5561 91.1697 15.4477C91.148 15.3394 91.148 15.3394 91.0613 15.3394ZM90.8664 30.7005C87.0532 30.7005 83.825 33.8203 83.825 37.6552V37.8502C83.825 41.7717 87.0532 44.8916 90.9747 44.8916C94.8962 44.7833 98.0161 41.6634 98.0161 37.7419C98.0161 33.8204 94.7662 30.7005 90.8664 30.7005ZM122.953 29.4222C126.875 29.4222 129.995 26.194 129.908 22.2725C129.8 18.3509 126.68 15.2311 122.758 15.3177C118.945 15.3177 115.804 18.4376 115.804 22.2725V22.4675C115.912 26.4106 119.032 29.5305 122.953 29.4222ZM106.812 14.1694C110.626 14.2778 113.854 11.2446 113.962 7.40971V7.21472C114.07 3.29321 110.929 0.0649981 107.007 0.0649981C103.086 -0.043331 99.8577 3.09821 99.8577 7.01972C99.771 10.8546 102.891 14.0828 106.812 14.1694ZM122.953 14.1694C126.875 14.1694 129.995 11.0496 129.995 7.21472V7.10639C129.995 3.18488 126.875 0.0649981 122.953 0.0649981C119.032 0.0649981 115.912 3.22821 115.912 7.12805C115.804 10.9412 119.032 14.1694 122.953 14.1694ZM90.8664 0C86.9448 0 83.825 3.11988 83.825 7.04139C83.7166 10.8546 86.8582 14.0828 90.6714 14.0828H90.8664C94.7879 14.1911 98.0161 11.0496 98.0161 7.12805V7.04139C97.9944 3.11988 94.7662 0 90.8664 0ZM90.953 12.1112C88.2231 12.1112 85.9699 9.96628 85.8615 7.21472V7.04139C85.8615 4.20317 88.1148 1.94992 90.953 1.94992C93.7912 1.94992 96.0445 4.20317 96.0445 7.04139C96.0445 9.77129 93.7912 12.1112 90.953 12.1112ZM122.845 30.8088C118.924 30.8088 115.804 33.9287 115.804 37.8502C115.695 41.6634 118.837 44.8916 122.65 44.8916H122.845C126.767 44.9999 129.995 41.8584 129.995 37.9369V37.8285C129.995 33.9287 126.767 30.7005 122.845 30.8088ZM122.845 42.92C120.115 42.92 117.862 40.7751 117.754 38.0235V37.8285C117.754 34.9903 120.007 32.7371 122.845 32.7371C125.683 32.7371 127.937 34.9903 127.937 37.8285C128.023 40.5801 125.77 42.8333 122.845 42.92Z" fill="white"/>
<path d="M33.1487 23.9626C27.4723 23.8542 22.7708 28.2741 22.6841 33.9289V34.4272C22.4891 40.1903 26.9956 44.8918 32.6504 45.0001H33.1487C38.9118 45.0001 43.6133 40.2986 43.6133 34.5355C43.6133 28.7507 38.9118 23.9626 33.1487 23.9626ZM33.1487 40.4936C30.0288 40.4936 27.6673 37.8504 27.6673 34.5355C27.6673 31.2206 30.0072 28.5774 33.1487 28.5774C36.2903 28.5774 38.7168 31.1123 38.7168 34.5355C38.7168 37.937 36.3769 40.4936 33.1487 40.4936ZM48.5098 16.0329C47.5348 16.0329 46.9498 16.5312 46.9498 17.3112V44.5018H49.4847C50.6547 44.6101 51.6297 43.7218 51.6297 42.5519V42.3569V32.1739H60.4477C61.6176 32.2823 62.5926 31.394 62.5926 30.224V30.029V27.6891H51.6297V20.5394H62.8742C63.7625 20.5394 64.4342 19.8461 64.4342 18.9794V18.8711V16.0329H64.2392H48.5098ZM69.7423 24.7425C68.854 24.7425 68.1824 25.3275 68.074 26.2158V26.4108V44.5018H71.1939C72.0822 44.5018 72.8622 43.8085 72.8622 42.9418V42.8335V24.7425H69.7423ZM70.5223 15.4479C68.854 15.4479 67.5974 16.8128 67.5974 18.4811C67.5974 20.1494 68.9623 21.406 70.6306 21.406C72.2989 21.406 73.5555 20.0411 73.5555 18.4811C73.5555 16.8128 72.1689 15.4479 70.5223 15.4479ZM113.659 20.3444C113.161 18.7844 112.186 17.5062 110.821 16.6179C110.626 16.5095 110.431 16.3145 110.236 16.2279C110.127 16.1195 110.041 16.1195 109.932 16.0329C109.737 15.9245 109.542 15.8379 109.239 15.7296C108.741 15.5346 108.351 15.4262 107.874 15.4262C106.899 15.3179 105.924 15.3179 105.036 15.6212C104.538 15.7296 104.148 15.9245 103.758 16.1195C102.674 16.7045 101.699 17.4845 101.028 18.5678C100.919 18.6761 100.919 18.7628 100.833 18.8711C100.139 19.9544 99.8578 21.211 99.7495 22.4893C99.6411 26.3025 102.783 29.5307 106.596 29.5307H106.791C110.712 29.5307 113.941 26.4108 113.941 22.576C113.941 22.576 113.941 22.576 113.941 22.4676C114.049 21.7093 113.941 21.016 113.659 20.3444ZM106.813 27.3858C104.083 27.4941 101.916 25.3275 101.829 22.5976V22.4026C101.829 19.6727 104.083 17.5062 106.726 17.5062C109.456 17.3978 111.709 19.4561 111.904 22.2076C112.099 24.9375 109.954 27.1908 107.202 27.3858H106.813ZM10.0746 27.3858C8.01636 26.6058 5.9581 25.6308 5.9581 23.4643C5.9581 22.576 6.26142 21.796 6.8464 21.211C7.7347 20.431 8.79632 20.0411 9.96628 20.1277C14.3644 20.236 14.0828 24.7209 14.0828 24.7209H17.311C18.1993 24.7209 18.8709 24.1359 18.9793 23.2476C18.9793 22.7493 18.8709 22.2726 18.6759 21.7743C18.5676 21.5793 17.116 15.8162 9.87962 15.6212C7.34471 15.5129 4.89648 16.5095 3.03322 18.2645C1.66827 19.5427 0.974962 21.3843 0.974962 23.3559C0.974962 29.119 5.56812 30.7006 10.4646 32.3472C12.3279 33.0406 14.8628 33.8205 14.8628 36.5504C14.8628 37.5254 14.5594 38.4137 13.8878 39.0853C12.9995 39.9736 11.7429 40.4503 10.4646 40.4503C7.23639 40.4503 5.17813 38.3053 5.17813 34.9688V34.7738H0V34.9688C0 35.4671 0 35.9438 0.108329 36.3338V36.4421C0.108329 36.7454 0.216659 37.0271 0.303322 37.3304V37.4387C0.411651 37.742 0.498315 38.0237 0.498315 38.327C0.693307 38.912 0.996628 39.4103 1.27828 39.9953C1.38661 40.2986 1.58161 40.4936 1.7766 40.7753C1.88493 41.0786 1.97159 41.2736 2.16658 41.4686C2.36157 41.6636 2.55657 41.8585 2.75156 42.0535C2.94655 42.2485 3.14155 42.4435 3.33654 42.5519L4.02984 43.0502C4.52816 43.3535 5.00481 43.6351 5.50312 43.8301C5.8931 44.0251 6.0881 44.2201 6.39142 44.2201L7.17139 44.4151H7.27972C7.58304 44.5234 7.77803 44.5234 8.05969 44.6101H8.16802C8.47134 44.6101 8.75299 44.7184 8.94799 44.7184H9.83628C12.6745 44.8268 15.4044 43.8301 17.4627 41.8802C19.0226 40.2119 19.8026 38.067 19.7159 35.9221C19.7159 30.6356 14.3428 28.6857 9.94461 27.2124L10.0746 27.3858Z" fill="white"/>
</svg>
