<svg width="189" height="36" viewBox="0 0 189 36" fill="none" xmlns="http://www.w3.org/2000/svg">
<path fill-rule="evenodd" clip-rule="evenodd" d="M96.4749 0.64651H65.968V8.88579C65.2949 6.24706 63.6524 3.9853 61.3637 2.53131C58.8596 0.861916 55.8709 0.619585 51.9667 0.619585H16.9901V8.67038H23.8831V35.3538H32.984V8.69731H39.6078V35.3807H48.7086V24.1796L55.817 35.3538H83.389L85.9739 28.1377L65.968 21.6486V33.9267L57.9711 23.4526C62.1177 22.3756 64.9449 19.5215 65.968 15.6172V21.6217H75.0689H87.0509V13.9209H75.042V8.29342H87.024V0.727288L87.5894 2.45053L93.7554 20.9216H93.7823L101.833 18.4175L96.4749 0.64651ZM50.4588 16.6943H48.6817V8.45497H51.1858C55.2247 8.45497 57.1364 9.61278 57.1364 12.4938C57.1633 15.6172 54.9554 16.6943 50.4588 16.6943ZM170.871 23.4526C176.148 22.0794 179.272 17.879 179.272 12.2515C179.272 7.94339 177.548 4.68537 174.263 2.53131C171.759 0.861916 168.771 0.619585 164.839 0.619585H152.507V12.7362C151.538 9.80126 149.842 7.18946 147.553 5.11618C143.945 1.80432 139.179 -0.0266329 134.279 0.000292815C129.001 0.000292815 124.397 1.69661 120.735 5.08926C118.931 6.73173 117.477 8.75116 116.481 10.986L119.9 0.64651H110.476L105.468 17.3135L115.269 14.2709L96.8519 26.6029L103.718 35.3807H108.403L115.511 13.867C115.215 15.1056 115.081 16.3711 115.081 17.6367C115.081 22.7525 116.858 27.0607 120.358 30.5341C124.02 34.1421 128.732 36 134.225 36C139.395 36 144.322 34.0883 147.93 30.5879C150.084 28.5416 151.673 25.9836 152.534 23.1564V35.3807H161.635V24.1796L168.744 35.3538H179.972L170.871 23.4526ZM134.198 27.4376C129.082 27.4376 124.424 23.2372 124.424 17.7713C124.424 12.6823 128.759 8.64345 134.306 8.64345C139.529 8.64345 143.864 12.7092 143.864 17.7713C143.864 23.4526 139.529 27.4376 134.198 27.4376ZM163.358 16.6943H161.581V8.45497H164.085C168.124 8.45497 170.063 9.61278 170.063 12.4938C170.063 15.6172 167.855 16.6943 163.358 16.6943ZM186.461 32.8504V34.062H188.83V35.3006H182.53V32.8504C182.53 31.5579 183.418 30.7502 184.495 30.7502C185.572 30.7502 186.461 31.5579 186.461 32.8504ZM183.634 32.9042V34.062H185.357V32.9042C185.384 32.4196 185.034 32.0157 184.549 31.9618C184.064 31.908 183.661 32.2849 183.607 32.7696C183.607 32.8234 183.607 32.8773 183.634 32.9042ZM186.326 27.8151L188.83 26.5765V25.1764L186.111 26.5765C185.868 25.8765 185.195 25.3918 184.441 25.4187C183.391 25.4187 182.503 26.1726 182.503 27.4651V29.9423H188.83V28.7037H186.326V27.8151ZM183.634 28.7037V27.5459V27.4382C183.66 26.9804 184.064 26.6304 184.522 26.6573C184.98 26.6842 185.33 27.0881 185.303 27.5459V28.7037H183.634ZM188.211 20.7057C188.669 21.1635 188.911 21.7558 188.911 22.402C188.938 23.0483 188.669 23.6676 188.211 24.1253C187.59 24.7464 186.844 24.7457 185.831 24.7447L185.707 24.7446L185.583 24.7447C184.567 24.7457 183.798 24.7464 183.203 24.1253C182.745 23.6676 182.503 23.0483 182.503 22.402C182.476 21.7558 182.745 21.1365 183.203 20.7057C183.824 20.0846 184.569 20.0854 185.583 20.0864L185.707 20.0864L185.831 20.0864C186.844 20.0854 187.59 20.0846 188.211 20.7057ZM183.903 21.6212C183.687 21.8097 183.553 22.1059 183.58 22.402C183.58 22.6982 183.687 22.9944 183.903 23.2098C184.172 23.4521 184.468 23.506 185.68 23.506C186.892 23.506 187.188 23.4521 187.457 23.2098C187.672 22.9944 187.807 22.6982 187.78 22.402C187.78 22.1059 187.672 21.8097 187.457 21.6212C187.188 21.3789 186.892 21.2981 185.68 21.2981C184.468 21.2981 184.172 21.3789 183.903 21.6212ZM188.238 19.8445C188.669 19.4137 188.911 18.8482 188.884 18.2289C188.884 17.0442 188.157 15.9941 186.73 15.9941H182.503V17.2327H186.703C187.43 17.2327 187.78 17.6366 187.78 18.2289C187.807 18.552 187.672 18.8482 187.43 19.0367L188.238 19.8445ZM188.83 14.8098H182.503V10.6363H183.607V13.5712H185.088V11.0671H186.192V13.5712H187.726V10.6363H188.83V14.8098ZM188.211 9.23615C188.642 8.77842 188.911 8.18605 188.884 7.53983C188.884 6.32817 188.184 5.4127 186.891 5.22422V6.4628C187.403 6.54358 187.807 7.00132 187.78 7.53983C187.807 7.83602 187.672 8.1322 187.457 8.32068C187.188 8.56301 186.891 8.61686 185.68 8.61686C184.468 8.61686 184.172 8.58994 183.903 8.32068C183.687 8.10527 183.58 7.83602 183.58 7.53983C183.553 7.00132 183.93 6.54358 184.468 6.4628V5.22422C183.176 5.43962 182.476 6.32817 182.476 7.53983C182.476 8.18605 182.718 8.77842 183.176 9.23615C183.418 9.50541 183.768 9.66697 184.118 9.74774C185.168 9.88237 186.218 9.88237 187.268 9.74774C187.618 9.66697 187.942 9.50541 188.211 9.23615ZM183.634 2.10051H188.857V3.33909H183.634V4.98156H182.53V0.458036H183.634V2.10051ZM2.88105 6.94781V1.72421H4.52352V0.620257H0V1.72421H1.64247V6.94781H2.88105ZM8.69697 6.92088V4.28216H6.56984V6.92088H5.33126V0.620257H6.56984V3.20513H8.69697V0.620257H9.93556V6.94781H8.69697V6.92088ZM10.8514 0.620257V6.92088L15.0248 6.94781V5.84385H12.0899V4.30908H14.5671V3.20513H12.0899V1.72421H15.0248V0.620257H10.8514Z" fill="black"/>
</svg>
