<svg width="141" height="33" viewBox="0 0 141 33" fill="none" xmlns="http://www.w3.org/2000/svg">
<path fill-rule="evenodd" clip-rule="evenodd" d="M0.0338434 27.8164C0.0363503 27.5795 0.107789 27.3545 0.265095 27.0981H0.265727C0.266353 27.0963 14.2391 6.41515 14.2391 6.41515H0V0.59668H22.2536V4.85712L22.2517 4.97306C22.2479 5.20996 22.1777 5.43559 22.0204 5.69129C22.0154 5.70007 8.04519 26.3743 8.04519 26.3743H22.2517V32.1934H0.0313283V27.9323L0.0338434 27.8164ZM81.2725 10.7162C83.6878 10.7162 85.8268 11.5165 87.3341 12.978V0.597153H93.293V32.1788H87.3341V30.068C85.8325 31.6781 83.6139 32.5943 81.1879 32.5943C78.8063 32.5943 76.2825 31.5891 74.4368 29.9019C72.8876 28.4818 71.0388 25.9003 71.0388 21.6556C71.0388 14.474 76.1885 10.7162 81.2725 10.7162ZM76.8729 21.6154C76.8729 24.739 79.2118 27.0949 82.3116 27.0949C85.2214 27.0949 87.5008 24.687 87.5002 21.6154C87.5002 18.5163 85.2684 16.1768 82.3116 16.1768C79.2124 16.1768 76.8729 18.5157 76.8729 21.6154ZM24.0874 21.6544C24.0874 15.6241 28.9752 10.7163 34.9854 10.7163C40.9957 10.7163 45.8841 15.6241 45.8841 21.6544C45.8841 27.6878 40.9957 32.595 34.9854 32.595C28.9758 32.595 24.0874 27.6872 24.0874 21.6544ZM29.9209 21.6544C29.9209 24.6119 32.1458 26.9282 34.9854 26.9282C37.8013 26.9282 40.0907 24.563 40.0932 21.6544C40.0932 18.7483 37.8013 16.3843 34.9854 16.3843C32.1452 16.3843 29.9209 18.6988 29.9209 21.6544ZM107.24 10.7163C101.231 10.7163 96.3428 15.6241 96.3428 21.6544C96.3428 27.6872 101.231 32.595 107.24 32.595C113.25 32.595 118.14 27.6878 118.14 21.6544C118.14 15.6241 113.249 10.7163 107.24 10.7163ZM107.24 26.9282C104.402 26.9282 102.175 24.6119 102.175 21.6544C102.175 18.6988 104.4 16.3843 107.24 16.3843C110.056 16.3843 112.348 18.7483 112.348 21.6544C112.347 24.563 110.056 26.9282 107.24 26.9282ZM54.1153 21.6555C54.1153 24.6111 56.394 26.9275 59.3039 26.9275C61.1508 26.9275 62.8191 25.951 63.7429 24.3886L68.6595 27.4144C66.7004 30.647 63.2322 32.5968 59.2644 32.5968C53.2548 32.5968 48.3664 27.6877 48.3664 21.6567C48.3664 15.6239 53.2554 10.7167 59.2644 10.7167C63.2296 10.7167 66.6998 12.6646 68.657 15.8978L63.7411 18.9242C62.8191 17.3581 61.1521 16.3817 59.3039 16.3817C56.3959 16.3817 54.1153 18.6986 54.1153 21.6555ZM131.517 26.9275C128.607 26.9275 126.328 24.6111 126.328 21.6555C126.328 18.6986 128.609 16.3817 131.517 16.3817C133.365 16.3817 135.032 17.3581 135.954 18.9242L140.87 15.8978C138.913 12.6646 135.443 10.7167 131.477 10.7167C125.468 10.7167 120.58 15.6239 120.58 21.6567C120.58 27.6877 125.468 32.5968 131.477 32.5968C135.444 32.5968 138.914 30.647 140.87 27.4144L135.954 24.3886C135.032 25.951 133.365 26.9275 131.517 26.9275Z" fill="white"/>
</svg>
